<?xml version="1.0" standalone="no"?>
<!DOCTYPE svg PUBLIC "-//W3C//DTD SVG 20010904//EN"
 "http://www.w3.org/TR/2001/REC-SVG-20010904/DTD/svg10.dtd">
<svg version="1.0" xmlns="http://www.w3.org/2000/svg"
 width="700.000000pt" height="700.000000pt" viewBox="0 0 700.000000 700.000000"
 preserveAspectRatio="xMidYMid meet">
<metadata>
Created by potrace 1.11, written by Peter Selinger 2001-2013
</metadata>
<g transform="translate(0.000000,700.000000) scale(0.100000,-0.100000)"
fill="#000000" stroke="none">
<path d="M1817 6564 c-1 -1 -31 -5 -67 -8 -398 -40 -791 -250 -1149 -616 -302
-309 -512 -720 -572 -1121 -6 -41 -13 -87 -15 -104 -8 -52 -11 -388 -3 -435 4
-25 10 -70 14 -100 17 -148 100 -423 174 -577 147 -304 289 -475 681 -823 102
-90 192 -171 201 -179 9 -9 31 -30 50 -46 69 -62 235 -211 269 -242 19 -17 44
-40 56 -50 44 -38 191 -170 244 -219 30 -28 102 -93 160 -144 107 -95 225
-201 335 -300 33 -30 98 -89 144 -130 46 -41 94 -84 105 -95 12 -11 60 -53
106 -94 47 -41 94 -84 106 -95 18 -17 113 -103 184 -166 50 -44 181 -161 229
-206 31 -28 74 -66 96 -85 22 -19 47 -41 55 -50 8 -9 55 -51 104 -95 49 -43
106 -94 125 -111 20 -18 40 -33 44 -33 4 0 26 17 49 38 77 70 93 84 152 135
77 67 426 377 491 436 62 56 127 115 224 201 40 36 83 74 95 85 45 40 188 169
521 465 187 167 385 344 440 394 92 83 164 147 320 287 61 54 119 106 139 124
6 6 52 46 101 90 50 44 92 82 95 85 3 3 65 59 139 125 74 66 156 143 182 170
282 298 465 673 535 1095 30 176 24 509 -11 700 -45 241 -165 537 -302 745
-260 394 -687 737 -1078 867 -155 51 -265 69 -440 74 -220 5 -340 -12 -544
-77 -335 -107 -734 -348 -1046 -632 -51 -46 -61 -48 -97 -15 -135 128 -433
347 -593 439 -87 49 -206 109 -266 134 -35 14 -73 30 -84 36 -23 11 -193 66
-227 74 -101 22 -183 36 -243 41 -67 6 -225 11 -228 8z"/>
</g>
</svg>
