<?xml version="1.0" encoding="utf-8"?>
<!-- Generator: Adobe Illustrator 21.1.0, SVG Export Plug-In . SVG Version: 6.00 Build 0)  -->
<svg version="1.1" id="Calque_1" xmlns="http://www.w3.org/2000/svg" xmlns:xlink="http://www.w3.org/1999/xlink" x="0px" y="0px"
	 viewBox="0 0 432 432" style="enable-background:new 0 0 432 432;" xml:space="preserve">
<style type="text/css">
	.st0{fill:#343434;}
	.st1{fill:#ADCA60;}
	.st2{fill:#6EABC7;}
	.st3{fill:#EC6350;}
	.st4{fill:#EF8E81;}
	.st5{fill:#1B1B1B;}
	.st6{fill:#D2CE75;}
	.st7{fill:#F3C559;}
	.st8{fill:#AE5237;}
	.st9{fill:#73543B;}
	.st10{fill:#020203;}
	.st11{fill:#E4E0DF;}
	.st12{fill:#C1BB63;}
	.st13{fill:#F6D9D3;}
	.st14{fill:#EFAA9C;}
	.st15{fill:#F2C559;}
	.st16{fill:#303D46;}
	.st17{fill:#5A676E;}
	.st18{fill:#E46459;}
	.st19{fill:#A1263C;}
	.st20{fill:#483B3E;}
	.st21{fill:#DE9F84;}
	.st22{fill:#8B936E;}
	.st23{fill:#9A8E7C;}
	.st24{fill:#7E8D66;}
	.st25{fill:#D3C0AF;}
	.st26{fill:#6C2C3D;}
	.st27{fill:#A4BED3;}
	.st28{fill:#9FB187;}
	.st29{fill:#FAD5D2;}
	.st30{fill:#D7A2AE;}
	.st31{fill:#4E4D4D;}
	.st32{fill:#B84645;}
	.st33{fill:#756357;}
	.st34{fill:#9FAF88;}
	.st35{fill:#de037f;}
	.st36{fill:#EED0C6;}
	.st37{fill:#D4A77E;}
	.st38{fill:#CDC5BB;}
	.st39{fill:#9F4843;}
	.st40{fill:#D09F99;}
	.st41{fill-rule:evenodd;clip-rule:evenodd;fill:#de037f;}
	.st42{fill:#AE4759;}
	.st43{fill:#C9868F;}
	.st44{fill:#7F8D62;}
	.st45{fill:#D27F8E;}
	.st46{fill:#C69390;}
	.st47{fill:#9A9999;}
	.st48{fill:#B68368;}
	.st49{fill:#6D1F1F;}
	.st50{fill:#D2B6B4;}
	.st51{fill:#A7909E;}
	.st52{fill:#F8BD93;}
	.st53{fill:#397D59;}
	.st54{fill:#C4CEB3;}
	.st55{fill:#93A477;}
	.st56{fill:#D18B2E;}
	.st57{fill:#3C3C3B;}
	.st58{fill:#575756;}
	.st59{fill:#E6007E;}
	.st60{fill:none;}
	.st61{fill:#F9B233;}
	.st62{fill:#85CBCA;}
	.st63{fill:#E99F2B;}
	.st64{fill-rule:evenodd;clip-rule:evenodd;fill:#F9B233;}
	.st65{fill:#D60B52;}
	.st66{fill:#F4DCB5;}
	.st67{fill:#E58096;}
	.st68{fill:#E94865;}
	.st69{fill:#C21F4A;}
	.st70{fill:#C6C6C6;}
	.st71{fill:#DAA8CE;}
	.st72{fill:#F59F61;}
	.st73{fill:#E9E4AC;}
	.st74{fill:#E8375E;}
	.st75{fill:#833B12;}
	.st76{fill:#BB5D1C;}
	.st77{fill:#D17A3F;}
	.st78{fill:#DE184E;}
	.st79{fill:#D98892;}
	.st80{fill:#45553F;}
	.st81{fill:#517861;}
	.st82{fill:#A63070;}
	.st83{fill:#932065;}
	.st84{fill:#598967;}
	.st85{fill:#679275;}
	.st86{fill:#9A9A9A;}
	.st87{fill:#D8A49D;}
	.st88{fill:#D48A57;}
	.st89{fill:#E8BB98;}
	.st90{fill:#BA6F68;}
	.st91{fill:#924642;}
	.st92{fill:#E8C5AF;}
	.st93{fill:#D1906C;}
	.st94{fill:#C47C5C;}
	.st95{fill:#A2AD74;}
	.st96{fill:#F4EBD8;}
	.st97{fill:#C8A464;}
	.st98{fill:#F4A3A3;}
	.st99{fill:#F4CA71;}
	.st100{fill:#18223C;}
	.st101{fill:#E5B642;}
	.st102{fill:#224422;}
	.st103{fill:#245727;}
	.st104{fill:#386C38;}
	.st105{fill:#C54923;}
	.st106{fill:#264239;}
	.st107{fill:#C1292E;}
	.st108{fill:#D39812;}
	.st109{fill:#A67D52;}
	.st110{fill:#715640;}
	.st111{fill:#AB4B58;}
	.st112{fill:#67482E;}
	.st113{fill:#E7E6E6;}
	.st114{fill:#3C5259;}
	.st115{fill:#544842;}
	.st116{fill:#7DAD91;}
	.st117{fill:#5D9373;}
	.st118{fill-rule:evenodd;clip-rule:evenodd;fill:#C57B39;}
	.st119{fill:#C57B39;}
	.st120{fill:#B4DEF0;}
	.st121{fill:#923951;}
</style>
<g>
	<g>
		<path class="st35" d="M320.8,260.6c-0.1-4-0.6-8.1-1.3-12c-1.5-9-4.1-17.6-7.8-25.9c-3.7-8.5-8.3-16.6-14.3-23.8
			c-9.7-11.6-21.3-20.9-34.6-28c-6-3.2-12.2-6-18.9-7.7c-1.8-0.5-3.7-0.8-5.6-1.3c0-0.2-0.1-0.4-0.1-0.7c0-0.9,0-1.9-0.1-2.8
			c-0.1-2.6-0.2-5.1-0.4-7.7c-0.2-2.3-1.2-4.1-3.5-5c-0.1,0-0.1-0.1-0.2-0.2c3.5-4.8,6.9-9.6,10.6-14.3c4.4-5.6,8.9-11,13.4-16.5
			c4.4-5.3,8.7-10.7,13-16c0.9-1.1,1.6-2.2,2.3-3.4c0.7-1.2,0.6-2-0.3-3.1c-0.8-1-1.6-1.9-2.3-2.9c-3.2-4.1-6.4-8.2-9.5-12.4
			c-1.1-1.5-2.5-2.6-4.3-3.2c-0.2-0.1-0.4-0.1-0.6-0.2c-4.9-2.1-9.7-4.3-14.6-6.4c-1-0.4-2-0.9-3.1-1.2c-0.6-0.2-1.3-0.3-2-0.3
			c-4.3-0.1-8.7-0.1-13-0.2c-5.1-0.1-10.2-0.4-15.3-0.5c-7.1-0.2-14.1,0.1-21.1,0.6c-0.8,0.1-1.6,0.3-2.3,0.6
			c-1.2,0.4-2.4,1-3.6,1.5c-4.5,1.7-8.9,3.5-13.4,5.2c-1.8,0.7-3.3,1.7-4.3,3.4c-0.1,0.2-0.3,0.4-0.4,0.6c-4,5.4-7.9,10.9-12,16.3
			c-0.6,0.8-0.6,1.5-0.1,2.3c0.2,0.3,0.3,0.6,0.5,0.8c3,4,6,8.1,9.1,12.1c4.4,5.6,8.7,11.2,13.3,16.6c5.3,6.3,10.8,12.5,16.3,18.8
			c0.3,0.3,0.5,0.6,0.9,1c-2.3,0.5-3.2,2-3.4,4c-0.2,2-0.3,3.9-0.3,5.9c-0.1,1.6,0,3.2,0,4.9c-0.3,0.1-0.7,0.2-1,0.3
			c-1.2,0.4-2.5,0.7-3.7,1.2c-3.9,1.6-7.8,3-11.6,4.8c-9.6,4.5-18.6,10.1-27.1,16.4c-0.6,0.4-1.1,0.9-1.7,1.4
			c-3.7,3.3-7,6.9-10.3,10.6c-1.6,1.8-3.2,3.5-4.6,5.4c-5.3,7.4-9.8,15.3-13.5,23.6c-5.5,12.4-8,25.4-8.2,38.9
			c-0.1,4,0.1,8.1,0.5,12.1c0.4,4.6,1.1,9.2,2.4,13.7c1.8,6.8,4.6,13.3,7.7,19.6c4.1,8.2,9,16,14.9,23c8.7,10.4,19.1,18.5,31.2,24.5
			c10.5,5.2,21.7,8.4,33.2,10.6c4.9,0.9,9.9,1.4,14.8,1.5c4.8,0.1,9.5,0,14.3-0.7c2.2-0.3,4.4-0.6,6.6-0.8c4.2-0.5,8.4-1.1,12.4-2.1
			c11.3-2.9,21.9-7.2,31.8-13.3c10.6-6.5,19.5-14.8,26.2-25.3c6.3-9.8,11.2-20.2,15-31.3c2.6-7.6,3.9-15.5,4.2-23.6
			C321.1,266.9,320.9,263.8,320.8,260.6z M264.9,99.8c-4,4.8-7.9,9.7-11.9,14.5c-4.1,5-8.2,9.9-12.2,15c-3.2,4.2-6.2,8.5-9.3,12.8
			c-0.2,0.3-0.4,0.6-0.7,0.9c0,0-0.1-0.1-0.1-0.1c1.9-4.8,3.8-9.6,5.6-14.5c2.4-6.5,4.7-13,6.6-19.7c0.3-1.1,0.8-1.5,1.8-1.9
			c4.6-1.7,9.1-3.5,13.6-5.2c2.3-0.9,4.7-1.8,7.2-2.8C265.2,99.3,265.1,99.6,264.9,99.8z M188.6,109.4c10.7-0.7,21.4-0.9,32-1.1
			c4.9-0.1,9.9-0.2,14.8-0.2c1.2,0,2.3,0,3.6,0c-4.7,12.5-8.5,25.3-13.9,37.6c-7.6-0.1-15.3,0.1-23-0.3c-4.8-12-9.7-23.9-14.5-35.9
			C188,109.4,188.3,109.4,188.6,109.4z M187.4,105.3c0.9-6,1.8-12.1,2.7-18.2c0.9,0,1.8,0,2.8,0c4.4,0.2,8.9,0.3,13.3,0.5
			c3.6,0.1,7.3,0.2,10.9,0.3C223,88,229,88,234.9,88.1c0.2,0,0.3,0,0.5,0c1.2,5.3,2.4,10.5,3.6,15.8c-0.6,0-1.3,0.1-2,0.1
			c-4.7,0-9.4,0.1-14.1,0.1c-5.8,0.1-11.6,0.2-17.4,0.4c-5,0.2-10.1,0.5-15.1,0.7C189.3,105.3,188.3,105.3,187.4,105.3z M257.7,79.2
			c3.8,4.8,7.5,9.4,11.3,14.2c-8.4,3.4-16.9,6.6-25.4,9.9c-1.7-5.1-2.4-10.4-3.9-15.5C246,85.5,251.8,82.2,257.7,79.2z M170.9,75.2
			c4.6-1.9,9.2-3.7,13.8-5.6c1.3-0.5,2.5-0.8,3.9-0.9c4.8-0.1,9.6-0.4,14.4-0.4c4.2,0,8.4,0.2,12.6,0.3c6.3,0.2,12.6,0.4,18.9,0.6
			c1.6,0,3.1,0.3,4.5,1c4.8,2.2,9.6,4.3,14.4,6.4c0.2,0.1,0.4,0.2,0.7,0.3c-0.3,0.2-0.5,0.3-0.8,0.5c-3.6,1.8-7.2,3.6-10.7,5.4
			c-0.4,0.2-0.7,0.3-1.1,0.5c-1.7,0.8-3.4,1.1-5.3,1c-8.7-0.2-17.4-0.3-26.1-0.5c-3.5-0.1-7-0.3-10.5-0.4c-3.1-0.1-6.2-0.1-9.3-0.1
			c-1.7,0-3.2-0.3-4.7-1c-4.8-2.2-9.7-4.2-14.6-6.4c-0.2-0.1-0.5-0.2-0.8-0.4C170.4,75.4,170.6,75.3,170.9,75.2z M155.5,92.7
			c3.7-5.1,7.3-10.2,11-15.3c6.4,3.5,13.1,6.1,19.8,9c-1,6.2-2,12.5-3,18.8c-0.7-0.3-1.3-0.5-1.9-0.8c-4.4-2-8.7-4.1-13.1-6.1
			c-3.6-1.6-7.2-3.2-10.8-4.9C156.9,93.2,156.3,93,155.5,92.7z M179.7,125.2c-4.5-5.4-8.7-10.9-13.1-16.3c-2.7-3.4-5.5-6.8-8.3-10.2
			c-0.1-0.2-0.3-0.4-0.6-0.7c0.3,0.1,0.5,0.1,0.7,0.2c5.7,2.6,11.4,5.1,17.1,7.7c1.9,0.8,3.7,1.7,5.6,2.5c0.2,0.1,0.5,0.3,0.7,0.3
			c1.3,0.2,1.6,1.1,2,2.2c1.8,5.6,4,11,6.3,16.5c2.3,5.6,4.7,11.2,7,16.8c0.1,0.3,0.2,0.6,0.3,0.9c-0.5,0.1-0.7-0.2-0.9-0.5
			C190.9,138.2,185.2,131.7,179.7,125.2z M213.4,349.9c-48.5,0-87.7-39.3-87.7-87.7c0-48.5,39.3-87.7,87.7-87.7s87.7,39.3,87.7,87.7
			C301.1,310.7,261.9,349.9,213.4,349.9z"/>
		<g>
			<g>
				<path class="st0" d="M173.9,142.8c0,1.2-1,1.9-2,1.6c-0.4-0.1-0.9-0.4-1.2-0.7c-5.5-4.3-11.1-8.6-16.5-13
					c-4.5-3.7-8.9-7.5-13.2-11.3c-1.9-1.7-3.6-3.7-5.4-5.6c-0.4-0.5-0.8-1-1.1-1.6c-0.4-0.8-0.4-1.6,0.2-2.3c0.6-0.7,1.4-1,2.2-0.8
					c0.7,0.2,1.4,0.5,2,0.9c1.2,0.8,2.3,1.7,3.4,2.6c9.5,8.1,18.6,16.5,27.4,25.3c1.1,1.1,2.3,2.2,3.4,3.3
					C173.5,141.7,173.9,142.2,173.9,142.8z"/>
				<path class="st0" d="M128.1,134.4c1.1,0.3,2.2,0.5,3.3,0.9c3.5,1.2,6.9,2.9,10.2,4.6c6,3.1,12,6.2,18.1,9.3
					c0.3,0.2,0.6,0.3,0.9,0.5c0.8,0.5,1.1,1.3,0.9,2.1c-0.2,0.9-0.8,1.4-1.7,1.5c-0.8,0.1-1.6,0-2.4-0.2c-3-0.7-5.8-1.9-8.6-3.2
					c-7.2-3.2-14.3-6.7-21.1-10.7c-0.4-0.3-0.9-0.5-1.3-0.8c-0.8-0.7-1.1-1.5-0.8-2.4c0.3-0.9,1.1-1.4,2.2-1.5c0.1,0,0.2,0,0.3,0
					C128.1,134.5,128.1,134.5,128.1,134.4z"/>
				<path class="st0" d="M152.6,160c1.5,0,2.2,0.4,2.5,1.3c0.3,0.9-0.1,1.8-1,2.4c-0.3,0.2-0.6,0.4-1,0.5c-1.9,0.7-3.8,1.3-5.8,1.9
					c-3.1,1-6.2,1.9-9.4,2.8c-0.6,0.2-1.2,0.3-1.9,0.3c-0.7,0-1.2-0.4-1.4-1c-0.2-0.7,0-1.3,0.5-1.7c0.5-0.4,1-0.8,1.6-1
					c4.4-1.6,8.6-3.7,13.2-4.9C151.1,160.3,152.1,160.1,152.6,160z"/>
			</g>
			<g>
				<path class="st0" d="M251.8,142.8c0,1.2,1,1.9,2,1.6c0.4-0.1,0.9-0.4,1.2-0.7c5.5-4.3,11.1-8.6,16.5-13
					c4.5-3.7,8.9-7.5,13.2-11.3c1.9-1.7,3.6-3.7,5.4-5.6c0.4-0.5,0.8-1,1.1-1.6c0.4-0.8,0.4-1.6-0.2-2.3c-0.6-0.7-1.4-1-2.2-0.8
					c-0.7,0.2-1.4,0.5-2,0.9c-1.2,0.8-2.3,1.7-3.4,2.6c-9.5,8.1-18.6,16.5-27.4,25.3c-1.1,1.1-2.3,2.2-3.4,3.3
					C252.2,141.7,251.8,142.2,251.8,142.8z"/>
				<path class="st0" d="M297.5,134.4c-1.1,0.3-2.2,0.5-3.3,0.9c-3.5,1.2-6.9,2.9-10.2,4.6c-6,3.1-12,6.2-18.1,9.3
					c-0.3,0.2-0.6,0.3-0.9,0.5c-0.8,0.5-1.1,1.3-0.9,2.1c0.2,0.9,0.8,1.4,1.7,1.5c0.8,0.1,1.6,0,2.4-0.2c3-0.7,5.8-1.9,8.6-3.2
					c7.2-3.2,14.3-6.7,21.1-10.7c0.4-0.3,0.9-0.5,1.3-0.8c0.8-0.7,1.1-1.5,0.8-2.4c-0.3-0.9-1.1-1.4-2.2-1.5c-0.1,0-0.2,0-0.3,0
					C297.6,134.5,297.6,134.5,297.5,134.4z"/>
				<path class="st0" d="M273,160c-1.5,0-2.2,0.4-2.5,1.3c-0.3,0.9,0.1,1.8,1,2.4c0.3,0.2,0.6,0.4,1,0.5c1.9,0.7,3.8,1.3,5.8,1.9
					c3.1,1,6.2,1.9,9.4,2.8c0.6,0.2,1.2,0.3,1.9,0.3c0.7,0,1.2-0.4,1.4-1c0.2-0.7,0-1.3-0.5-1.7c-0.5-0.4-1-0.8-1.6-1
					c-4.4-1.6-8.6-3.7-13.2-4.9C274.6,160.3,273.6,160.1,273,160z"/>
			</g>
		</g>
		<g>
			<path class="st41" d="M109.8,190.6c1-2.8,2.4-5.5,4.8-7.4c1.1-0.9,2.4-1.7,3.8-2.2c1.3-0.5,3.3-0.3,3.5-2c0,0,0-0.1,0-0.1
				c0,0,0-0.1,0-0.1c-0.2-1.7-2.2-1.5-3.5-2c-1.4-0.5-2.7-1.2-3.8-2.2c-2.3-1.9-3.8-4.6-4.8-7.4c-0.9-2.6-3-0.8-3.3,0.9
				c-1,4.8-3.7,7.6-8.4,8.7c-1.1,0.2-2.5,0.6-2.6,2.1c0,0,0,0,0,0c0,0,0,0,0,0c0,1.5,1.5,1.8,2.6,2.1c4.7,1.1,7.5,3.8,8.4,8.7
				C106.7,191.4,108.9,193.2,109.8,190.6z"/>
			<path class="st41" d="M318.5,176.9c1.4-4.1,3.6-8,6.9-10.7c1.6-1.3,3.5-2.4,5.5-3.2c1.8-0.7,4.8-0.4,5-2.9c0-0.1,0-0.1,0-0.2
				c0-0.1,0-0.1,0-0.2c-0.2-2.4-3.2-2.1-5-2.9c-2-0.8-3.9-1.8-5.5-3.2c-3.4-2.8-5.5-6.7-6.9-10.7c-1.3-3.8-4.4-1.1-4.9,1.3
				c-1.4,7-5.4,11-12.2,12.6c-1.6,0.4-3.7,0.8-3.7,3c0,0,0,0,0,0c0,0,0,0,0,0c0,2.2,2.1,2.6,3.7,3c6.9,1.5,10.8,5.6,12.2,12.6
				C314.1,178,317.2,180.7,318.5,176.9z"/>
			<path class="st41" d="M327.6,210.4c0.7-2.1,1.8-4.1,3.6-5.6c0.8-0.7,1.8-1.2,2.8-1.6c1-0.4,2.5-0.2,2.6-1.5c0,0,0-0.1,0-0.1
				c0,0,0-0.1,0-0.1c-0.1-1.3-1.6-1.1-2.6-1.5c-1-0.4-2-0.9-2.8-1.6c-1.7-1.4-2.9-3.4-3.6-5.6c-0.7-2-2.3-0.6-2.5,0.7
				c-0.7,3.6-2.8,5.7-6.3,6.5c-0.8,0.2-1.9,0.4-1.9,1.6c0,0,0,0,0,0c0,0,0,0,0,0c0,1.1,1.1,1.4,1.9,1.6c3.6,0.8,5.6,2.9,6.3,6.5
				C325.3,211,326.9,212.4,327.6,210.4z"/>
		</g>
	</g>
	<g>
		<g>
			<path class="st0" d="M165.1,231.4c-1.3-1.2-2.8-2-4.6-2.4c-1.2-0.3-2.5-0.2-3.7-0.1c-1.5,0.1-2.9,0.2-4.4,0.3
				c-0.9,0.1-1.8,0.1-2.7-0.1c-1-0.1-1.9-0.5-2.7-1.1c-0.9-0.7-0.9-1.6,0-2.3c0.5-0.4,1.2-0.6,1.8-0.6c0.7,0,1.4,0.1,2.1,0.2
				c0.3,0,0.5,0.1,0.8,0.1c0.2,0,0.5,0,0.6-0.3c0.1-0.3,0-0.5-0.2-0.7c-0.3-0.2-0.6-0.4-0.9-0.5c-1.4-0.4-2.8-0.5-4.2-0.1
				c-1.2,0.4-2.2,1-2.9,2.3c-0.1,0.3-0.3,0.6-0.4,1c-0.3,1.8,0.3,3.2,1.6,4.4c0.8,0.7,1.8,1.2,2.8,1.4c1.5,0.4,3,0.4,4.6,0.3
				c1.4-0.1,2.9-0.2,4.3-0.3c1.7-0.1,3.3-0.1,5,0c0.8,0,1.6,0.2,2.3,0.6c0.7,0.4,1,1,0.8,1.7c-0.1,0.3-0.3,0.5-0.5,0.7
				c-0.7,0.7-1.6,0.9-2.5,0.9c-1.1,0-2.1-0.3-3.1-0.6c-0.1,0-0.3-0.1-0.4-0.1c-0.3,0-0.5,0.2-0.4,0.5c0.1,0.2,0.3,0.4,0.5,0.5
				c0.4,0.2,0.8,0.4,1.2,0.5c2,0.6,3.8,0.4,5.4-1c1.3-1.1,1.3-3,0.7-4.1C165.9,232.3,165.5,231.8,165.1,231.4z"/>
			<path class="st0" d="M172.8,223.9c-1.3-1-2.6-2.1-3.9-3.1c-1-0.7-1.9-1.4-2.9-2.1c-2.1-1.5-4.2-3-6.4-4.2
				c-1.3-0.7-2.7-1.3-4.1-1.6c-0.9-0.2-1.9-0.2-2.8,0.1c-1,0.4-1.5,1.2-1.2,2.3c0.1,0.3,0.3,0.7,0.4,1c0.4,0.8,0.8,1.5,1.3,2.1
				c1.8,2.5,4,4.7,6.2,6.9c2.1,2.1,4.4,4.1,6.5,6.1c0.3,0.3,0.6,0.5,0.9,0.7c0.2,0.2,0.4,0.3,0.7,0.1c0.3-0.2,0.1-0.5,0-0.7
				c-0.1-0.2-0.3-0.4-0.4-0.6c-0.6-0.8-1.4-1.4-2.1-2.1c-0.2-0.2-0.3-0.4-0.1-0.6c0.6-0.7,1-1.5,1.5-2.3c0.4-0.6,0.8-1.1,1.2-1.7
				c0.3-0.4,0.3-0.4,0.7-0.1c0.9,0.6,1.9,1.2,2.8,1.9c0.3,0.2,0.5,0.4,0.9,0.4c0.5,0.1,0.9,0,1.2-0.4c0.3-0.4,0.3-0.9,0.1-1.3
				C173.3,224.2,173.1,224,172.8,223.9z M166.9,223.4c-0.7,1-1.3,2.1-2,3.1c-0.2,0.3-0.4,0.7-0.7,1c-0.1,0.2-0.3,0.2-0.5,0.1
				c-0.4-0.4-0.9-0.7-1.3-1.1c-2.3-2.1-4.5-4.4-6.6-6.7c-0.9-1-1.7-2.1-2.3-3.3c-0.1-0.2-0.2-0.4-0.3-0.6c0-0.1-0.1-0.1,0-0.3
				c1.2,0.4,2.3,0.9,3.4,1.5c2,1,4,2,5.9,3.2c1.4,0.9,2.8,1.8,4.2,2.7C167,223.1,167.1,223.2,166.9,223.4z"/>
			<path class="st0" d="M178.4,218.5c-2.5-4.6-4.9-9.2-7.4-13.8c-0.6-1.2-1.2-2.4-1.8-3.6c-0.2-0.3-0.3-0.5-0.5-0.7
				c-0.2-0.1-0.3-0.2-0.5-0.1c-0.2,0.1-0.2,0.2-0.2,0.4c0,0.1,0.1,0.3,0.1,0.4c0.2,0.5,0.4,1,0.7,1.4c2.4,4.4,4.7,8.8,7,13.2
				c0.2,0.5,0.5,0.9,0.7,1.6c-0.7-0.6-1.2-1-1.8-1.5c-2.4-2-4.8-3.8-7.3-5.7c-1.3-1-2.6-2-3.9-2.9c-0.8-0.5-1.6-0.9-2.4-1.1
				c-0.5-0.1-1-0.1-1.4,0.4c-0.4,0.5-0.3,1,0,1.6c0.2,0.3,0.4,0.6,0.6,0.8c0.8,1,1.7,1.9,2.6,2.7c2.8,2.4,5.7,4.5,8.8,6.5
				c1.4,0.9,2.8,1.8,4.3,2.5c0.6,0.3,1.2,0.4,1.8,0.5c1,0.1,1.5-0.6,1.1-1.6C178.7,219.1,178.5,218.8,178.4,218.5z"/>
			<path class="st0" d="M187.6,212.2c-0.2-0.1-0.5,0-0.8,0.4c-0.4,0.5-0.8,1.1-1.2,1.6c-0.2,0.3-0.5,0.6-0.9,0.7
				c0-0.1-0.1-0.1-0.1-0.1c-0.5-1.5-1.1-3-1.7-4.5c-0.1-0.2-0.1-0.4,0.1-0.5c0.3-0.2,0.6-0.4,0.8-0.7c0.1-0.2,0.2-0.4,0.1-0.6
				c-0.1-0.2-0.3-0.2-0.6-0.2c-0.3,0-0.5,0.2-0.8,0.3c-0.2,0.1-0.4,0.1-0.5-0.1c-0.1-0.3-0.3-0.7-0.5-1c-1.1-2.1-2.2-4.3-3.3-6.4
				c-1-1.8-1.9-3.7-3.6-5.1c-0.1-0.1-0.1-0.2,0-0.3c0.1-0.1,0.3-0.2,0.4-0.3c0.8-0.3,1.6-0.6,2.4-0.6c0.2,0,0.4,0,0.6-0.2
				c0.2-0.1,0.3-0.3,0.3-0.6c0-0.2-0.2-0.4-0.4-0.4c-0.2-0.1-0.4-0.1-0.6-0.1c-1.3,0.2-2.6,0.5-3.6,1.3c-0.9,0.7-1.4,1.6-1.1,2.9
				c0.3,1.1,0.6,2.3,1.1,3.3c0.6,1.3,1.2,2.5,1.8,3.8c1.4,2.8,2.9,5.7,4.8,8.2c0.6,0.8,1.2,1.6,1.9,2.3c1.2,1.2,2.4,1.2,3.6,0.1
				c0,0,0.1,0,0.1-0.1c0.7-0.7,1.3-1.4,1.6-2.4C187.9,212.6,187.9,212.3,187.6,212.2z"/>
		</g>
		<g>
			<path class="st0" d="M201.7,206.4c-0.8-3.2-1.3-6.5-2-9.8c-0.6-2.9-1.1-5.9-2.3-8.7c0.9-0.3,1.8-0.4,2.7-0.4
				c0.3,0,0.6,0.1,0.9-0.1c0.3-0.2,0.5-0.3,0.5-0.7c0-0.4-0.2-0.6-0.5-0.8c-0.2-0.2-0.5-0.2-0.8-0.2c-0.8-0.1-1.5,0-2.3,0.1
				c-1.4,0.3-2.8,0.8-4.1,1.2c-0.8,0.3-1.6,0.7-2.3,1.3c-0.2,0.2-0.3,0.3-0.4,0.5c-0.3,0.5,0,1.1,0.6,1.1c0.1,0,0.3,0,0.4-0.1
				c0.4-0.2,0.7-0.3,1.1-0.5c0.6-0.3,1.1-0.5,1.8-0.7c-0.1,2.4,0.2,4.7,0.6,7c0.7,4.1,1.8,8.1,3.1,12.1c0.2,0.8,0.6,1.4,1.3,1.8
				c0.7,0.4,1.3,0.2,1.7-0.4c0.3-0.5,0.4-1,0.4-1.6C201.8,207.2,201.7,206.8,201.7,206.4z"/>
			<path class="st0" d="M217.3,185.5c-0.1-0.3-0.3-0.6-0.6-0.7c-0.4-0.1-0.7,0.1-0.9,0.4c-0.3,0.4-0.5,0.9-0.7,1.4
				c-0.3,0.9-0.4,1.8-0.5,2.7c-0.2,2-0.3,3.9-0.4,5.9c0,0.6,0,0.6-0.5,0.6c-1.1,0.1-2.2,0.2-3.3,0.4c-0.3,0-0.3-0.1-0.3-0.3
				c0-0.8,0.1-1.7,0.1-2.5c0.1-2.2,0.4-4.4,0.5-6.7c0-0.6,0-1.2-0.1-1.8c-0.3-1-1.1-1.3-1.9-0.6c-0.3,0.3-0.6,0.7-0.8,1.1
				c-0.6,1.1-1,2.4-1.2,3.6c-0.5,2.9-0.6,5.9-0.6,8.8c0,0.7,0.1,1.5,0.2,2.2c0.3,2.3,0.9,4.5,1.5,6.7c0.1,0.3,0.2,0.7,0.5,1
				c0.4,0.5,0.9,0.7,1.6,0.6c0.6-0.2,1.1-0.7,1.1-1.4c0-0.4,0-0.7-0.1-1.1c-0.4-1.8-0.5-3.7-0.7-5.5c0-0.8,0-1.5-0.1-2.3
				c0-0.3,0-0.5,0.4-0.5c1.1-0.1,2.2-0.3,3.3-0.4c0.4,0,0.5,0,0.5,0.4c0,1.4,0.1,2.8,0.3,4.2c0.1,0.4,0.1,0.8,0.2,1.3
				c0.1,0.8,0.7,1.2,1.4,1.2c0.7,0,1.2-0.6,1.2-1.3c0-0.2,0-0.3,0-0.5c0.1-3.1,0.2-6.2,0.2-9.4c0-1.9,0.2-3.8,0.1-5.8
				C217.6,186.7,217.5,186.1,217.3,185.5z"/>
			<path class="st0" d="M228.9,186.4c-1.1-0.7-2.3-1.2-3.7-1.2c-1.1,0-2.1,0.3-2.7,1.5c-0.5,1.1-0.9,2.1-1.2,3.3
				c-0.4,1.4-0.6,2.7-0.9,4.1c-0.7,3.1-1.3,6.2-1.4,9.4c0,1-0.1,2,0,3c0.2,1.7,1.1,2.5,2.8,2.4c0,0,0.1,0,0.1,0
				c1-0.1,1.9-0.3,2.7-0.9c0.4-0.3,0.5-0.5,0.4-0.8c-0.1-0.2-0.3-0.3-0.8-0.2c-0.7,0.2-1.3,0.4-1.9,0.5c-0.4,0.1-0.7,0.2-1.1,0
				c0-0.1,0-0.1,0-0.2c0.5-1.5,1-3,1.5-4.6c0.1-0.2,0.2-0.3,0.4-0.3c0.3,0.1,0.7,0.1,1.1,0c0.2-0.1,0.4-0.2,0.4-0.4
				c0-0.3-0.1-0.4-0.3-0.5c-0.2-0.2-0.5-0.2-0.8-0.2c-0.2,0-0.3-0.1-0.3-0.4c0.1-0.4,0.2-0.7,0.3-1.1c0.5-2.3,1-4.7,1.5-7
				c0.4-2,0.8-4.1,0.4-6.2c0-0.2,0-0.2,0.2-0.2c0.2,0,0.3,0,0.5,0.1c0.8,0.3,1.6,0.5,2.3,1c0.2,0.1,0.4,0.2,0.6,0.3
				c0.2,0,0.4-0.1,0.6-0.3c0.1-0.2,0.1-0.4,0-0.6C229.2,186.7,229.1,186.5,228.9,186.4z"/>
		</g>
		<g>
			<path class="st0" d="M250.2,207.9c1.5-2.7,1.9-5.5,1.4-8.4c-0.3-1.8-1-3.4-2.1-4.8c-0.7-0.8-1.5-1.4-2.3-1.9
				c-1.2-0.8-2.5-1.2-3.9-1.3c-0.2,0-0.4,0-0.7,0.1c-0.2,0.1-0.3,0.2-0.3,0.4c0,0.2,0.1,0.3,0.2,0.4c0.2,0.1,0.4,0.2,0.7,0.3
				c0.4,0.1,0.9,0.2,1.2,0.5c-3.9,5.5-7.2,11.3-8.5,18c-0.1,0-0.2-0.1-0.2-0.1c-0.2-0.1-0.3-0.2-0.5-0.3c-0.3-0.2-0.6-0.2-0.8-0.1
				c-0.2,0.2-0.2,0.5,0,0.8C235.9,214.8,245.6,216.3,250.2,207.9z M244.6,210c-0.8,1-1.8,1.8-3,2.2c-0.9,0.4-1.8,0.4-2.7,0.2
				c-0.4-0.1-0.4-0.1-0.3-0.5c0.5-1.6,1.2-3.2,1.9-4.7c1.2-2.6,2.5-5.1,3.7-7.6c0.8-1.7,1.7-3.3,2.2-5.2c1,0.7,1.6,1.7,1.8,2.9
				c0.3,1.5,0.1,3.1-0.1,4.7C247.6,205,246.5,207.6,244.6,210z"/>
			<path class="st0" d="M258.7,216.4c1.5-2,3.1-4.1,4.4-6.2c0.8-1.3,1.4-2.6,1.7-4.1c0.2-0.9,0.2-1.9,0-2.8
				c-0.3-1.1-1.2-1.5-2.3-1.2c-0.4,0.1-0.7,0.2-1,0.4c-0.8,0.4-1.5,0.8-2.2,1.3c-2.6,1.7-4.8,3.9-7.1,6c-2.1,2.1-4.2,4.2-6.3,6.3
				c-0.3,0.3-0.5,0.6-0.8,0.9c-0.2,0.2-0.3,0.4-0.1,0.7c0.2,0.3,0.5,0.2,0.7,0c0.2-0.1,0.4-0.3,0.6-0.4c0.8-0.6,1.4-1.3,2.1-2
				c0.2-0.2,0.4-0.3,0.6-0.1c0.7,0.6,1.5,1.1,2.3,1.6c0.6,0.4,1.1,0.8,1.7,1.2c0.4,0.3,0.4,0.3,0.1,0.8c-0.6,0.9-1.3,1.8-1.9,2.8
				c-0.2,0.3-0.4,0.5-0.4,0.9c-0.1,0.5,0,0.9,0.4,1.2c0.4,0.3,0.9,0.4,1.3,0.1c0.3-0.1,0.5-0.3,0.7-0.6c1.1-1.3,2.2-2.6,3.2-3.8
				C257.2,218.3,258,217.4,258.7,216.4z M253.9,217.2c-1-0.7-2-1.4-3.1-2.1c-0.3-0.2-0.7-0.5-1-0.7c-0.2-0.1-0.2-0.3,0-0.5
				c0.4-0.4,0.7-0.8,1.1-1.2c2.2-2.3,4.5-4.4,6.9-6.4c1-0.9,2.2-1.7,3.4-2.2c0.2-0.1,0.4-0.2,0.6-0.2c0.1,0,0.2-0.1,0.3,0
				c-0.4,1.2-1,2.3-1.6,3.4c-1.1,2-2.2,3.9-3.4,5.8c-0.9,1.4-1.9,2.8-2.8,4.1C254.2,217.3,254.1,217.3,253.9,217.2z"/>
			<path class="st0" d="M273.4,215.4c0.6,0.7,1.2,1.4,1.5,2.2c0.1,0.3,0.2,0.6,0.5,0.7c0.3,0.2,0.5,0.3,0.9,0.1
				c0.3-0.2,0.5-0.4,0.5-0.8c0-0.3,0-0.6-0.1-0.8c-0.3-0.7-0.7-1.4-1.1-2c-0.9-1.2-1.9-2.1-2.9-3.2c-0.6-0.6-1.3-1.2-2.2-1.5
				c-0.2-0.1-0.4-0.2-0.6-0.2c-0.6,0-0.9,0.5-0.7,1c0.1,0.1,0.1,0.2,0.3,0.3c0.3,0.2,0.6,0.5,0.9,0.7c0.5,0.4,1,0.8,1.4,1.3
				c-2.2,0.9-4.2,2.2-6.1,3.6c-3.4,2.4-6.5,5.2-9.6,8c-0.6,0.5-1,1.2-1.1,2c-0.1,0.8,0.4,1.3,1.1,1.3c0.5,0,1.1-0.1,1.6-0.4
				c0.3-0.2,0.7-0.4,1-0.7c2.6-2.1,5.3-4.1,7.9-6.1C269,219.4,271.4,217.7,273.4,215.4z"/>
			<path class="st0" d="M281.4,223.9c-0.7-0.9-1.6-1.4-2.9-1.2c-1.1,0.3-2.3,0.6-3.3,1c-1.3,0.6-2.5,1.2-3.8,1.8
				c-2.8,1.4-5.7,2.8-8.3,4.7c-0.8,0.6-1.7,1.2-2.4,1.9c-1.2,1.2-1.2,2.4-0.2,3.6c0,0,0,0.1,0.1,0.1c0.7,0.7,1.4,1.3,2.4,1.6
				c0.5,0.1,0.7,0.1,0.9-0.2c0.1-0.2,0-0.5-0.4-0.8c-0.5-0.4-1.1-0.8-1.6-1.2c-0.3-0.2-0.6-0.5-0.7-0.9c0.1,0,0.1-0.1,0.1-0.1
				c1.5-0.5,3-1.1,4.5-1.7c0.2-0.1,0.4-0.1,0.5,0.2c0.2,0.3,0.4,0.6,0.7,0.8c0.2,0.1,0.4,0.2,0.6,0.1c0.2-0.1,0.2-0.3,0.2-0.6
				c0-0.3-0.2-0.5-0.3-0.8c-0.1-0.2-0.1-0.4,0.2-0.5c0.3-0.1,0.7-0.3,1-0.4c2.1-1.1,4.3-2.1,6.4-3.2c1.8-1,3.7-1.9,5.1-3.5
				c0.1-0.1,0.2-0.1,0.3,0c0.1,0.1,0.2,0.3,0.2,0.4c0.3,0.8,0.6,1.6,0.6,2.5c0,0.2,0,0.4,0.2,0.6c0.1,0.2,0.3,0.3,0.6,0.3
				c0.2,0,0.4-0.2,0.4-0.4c0.1-0.2,0.1-0.4,0.1-0.6C282.5,226.3,282.2,225,281.4,223.9z"/>
		</g>
	</g>
</g>
</svg>
